<svg width="96" height="96" viewBox="0 0 96 96" fill="none" xmlns="http://www.w3.org/2000/svg">
<path d="M29.1429 32.5715C32.5528 32.5715 35.8231 31.2169 38.2343 28.8057C40.6454 26.3945 42 23.1242 42 19.7143C42 16.3044 40.6454 13.0341 38.2343 10.6229C35.8231 8.21177 32.5528 6.85718 29.1429 6.85718C25.733 6.85718 22.4627 8.21177 20.0515 10.6229C17.6403 13.0341 16.2857 16.3044 16.2857 19.7143C16.2857 23.1242 17.6403 26.3945 20.0515 28.8057C22.4627 31.2169 25.733 32.5715 29.1429 32.5715ZM6.85718 44.5098C6.85718 40.7555 9.89832 37.7143 13.6526 37.7143H32.8526C31.35 41.5053 31.3243 45.7221 32.7806 49.5311C34.237 53.3401 37.0693 56.4642 40.7178 58.2858H32.5132C30.4867 58.2845 28.5056 58.886 26.8219 60.0136C25.1381 61.1412 23.8276 62.744 23.0572 64.6183C16.1829 63.3463 12.0617 59.9143 9.70632 56.0812C6.85718 51.4629 6.85718 46.6903 6.85718 45.8675V44.5098ZM55.2789 58.2858H63.4903C67.7589 58.2858 71.4172 60.9017 72.9463 64.6183C79.8206 63.3463 83.9417 59.9143 86.2972 56.0812C89.1429 51.4595 89.1429 46.6869 89.1429 45.864V44.5098C89.1438 43.6171 88.9686 42.7331 88.6275 41.9082C88.2863 41.0833 87.7858 40.3338 87.1546 39.7026C86.5234 39.0714 85.7739 38.5709 84.949 38.2298C84.1242 37.8886 83.2401 37.7134 82.3475 37.7143H63.1475C64.6501 41.5053 64.6757 45.7221 63.2194 49.5311C61.7631 53.3401 58.9308 56.4642 55.2823 58.2858M79.7143 19.7143C79.7143 23.1242 78.3597 26.3945 75.9486 28.8057C73.5374 31.2169 70.2671 32.5715 66.8572 32.5715C63.4473 32.5715 60.177 31.2169 57.7658 28.8057C55.3546 26.3945 54 23.1242 54 19.7143C54 16.3044 55.3546 13.0341 57.7658 10.6229C60.177 8.21177 63.4473 6.85718 66.8572 6.85718C70.2671 6.85718 73.5374 8.21177 75.9486 10.6229C78.3597 13.0341 79.7143 16.3044 79.7143 19.7143ZM25.7143 68.5098C25.7143 64.7555 28.7555 61.7143 32.5098 61.7143H63.4903C67.2446 61.7143 70.2858 64.7555 70.2858 68.5098V69.864C70.2858 70.6869 70.2858 75.4595 67.44 80.0812C64.4572 84.936 58.6492 89.1429 48 89.1429C37.3509 89.1429 31.5429 84.9326 28.56 80.0846C25.7143 75.4595 25.7143 70.6903 25.7143 69.864V68.5098ZM48 56.5715C51.41 56.5715 54.6802 55.2169 57.0914 52.8057C59.5026 50.3945 60.8572 47.1242 60.8572 43.7143C60.8572 40.3044 59.5026 37.0341 57.0914 34.6229C54.6802 32.2118 51.41 30.8572 48 30.8572C44.5901 30.8572 41.3198 32.2118 38.9087 34.6229C36.4975 37.0341 35.1429 40.3044 35.1429 43.7143C35.1429 47.1242 36.4975 50.3945 38.9087 52.8057C41.3198 55.2169 44.5901 56.5715 48 56.5715Z" fill="#699BF7"/>
</svg>
