<svg width="96" height="96" viewBox="0 0 96 96" fill="none" xmlns="http://www.w3.org/2000/svg">
<path d="M81 33H60V12C60 9.61305 59.0518 7.32387 57.364 5.63604C55.6761 3.94821 53.3869 3 51 3H15C12.6131 3 10.3239 3.94821 8.63604 5.63604C6.94821 7.32387 6 9.61305 6 12V90C6 90.7956 6.31607 91.5587 6.87868 92.1213C7.44129 92.6839 8.20435 93 9 93H28.5C28.8978 93 29.2794 92.842 29.5607 92.5607C29.842 92.2794 30 91.8978 30 91.5V78.0844C30 76.47 31.2412 75.0844 32.8556 75.0037C33.2613 74.9842 33.6666 75.0472 34.0472 75.189C34.4277 75.3307 34.7756 75.5483 35.0695 75.8284C35.3635 76.1086 35.5976 76.4455 35.7575 76.8188C35.9175 77.192 36 77.5939 36 78V91.5C36 91.8978 36.158 92.2794 36.4393 92.5607C36.7206 92.842 37.1022 93 37.5 93H87C87.7956 93 88.5587 92.6839 89.1213 92.1213C89.6839 91.5587 90 90.7956 90 90V42C90 39.6131 89.0518 37.3239 87.364 35.636C85.6761 33.9482 83.3869 33 81 33ZM18.39 80.9756C17.7687 81.0569 17.1375 80.9416 16.5851 80.6458C16.0326 80.3501 15.5867 79.8888 15.3098 79.3267C15.0329 78.7646 14.9389 78.1299 15.0411 77.5116C15.1433 76.8934 15.4366 76.3227 15.8796 75.8796C16.3227 75.4366 16.8934 75.1433 17.5116 75.0411C18.1299 74.9389 18.7646 75.0329 19.3267 75.3098C19.8888 75.5867 20.3501 76.0326 20.6458 76.5851C20.9416 77.1375 21.0569 77.7687 20.9756 78.39C20.8899 79.0457 20.5899 79.6547 20.1223 80.1223C19.6547 80.5899 19.0457 80.8899 18.39 80.9756ZM18.39 65.9756C17.7687 66.0569 17.1375 65.9416 16.5851 65.6458C16.0326 65.3501 15.5867 64.8888 15.3098 64.3267C15.0329 63.7646 14.9389 63.1299 15.0411 62.5116C15.1433 61.8934 15.4366 61.3227 15.8796 60.8796C16.3227 60.4366 16.8934 60.1433 17.5116 60.0411C18.1299 59.9389 18.7646 60.0329 19.3267 60.3098C19.8888 60.5867 20.3501 61.0326 20.6458 61.5851C20.9416 62.1375 21.0569 62.7687 20.9756 63.39C20.8899 64.0457 20.5899 64.6547 20.1223 65.1223C19.6547 65.5899 19.0457 65.8899 18.39 65.9756ZM18.39 50.9756C17.7687 51.0569 17.1375 50.9416 16.5851 50.6458C16.0326 50.3501 15.5867 49.8888 15.3098 49.3267C15.0329 48.7646 14.9389 48.1299 15.0411 47.5116C15.1433 46.8934 15.4366 46.3227 15.8796 45.8796C16.3227 45.4366 16.8934 45.1433 17.5116 45.0411C18.1299 44.9389 18.7646 45.0329 19.3267 45.3098C19.8888 45.5867 20.3501 46.0326 20.6458 46.5851C20.9416 47.1375 21.0569 47.7687 20.9756 48.39C20.8899 49.0457 20.5899 49.6547 20.1223 50.1223C19.6547 50.5899 19.0457 50.8899 18.39 50.9756ZM18.39 35.9756C17.7687 36.0569 17.1375 35.9416 16.5851 35.6458C16.0326 35.3501 15.5867 34.8888 15.3098 34.3267C15.0329 33.7646 14.9389 33.1299 15.0411 32.5116C15.1433 31.8934 15.4366 31.3227 15.8796 30.8796C16.3227 30.4366 16.8934 30.1433 17.5116 30.0411C18.1299 29.9389 18.7646 30.0329 19.3267 30.3098C19.8888 30.5867 20.3501 31.0326 20.6458 31.5851C20.9416 32.1375 21.0569 32.7687 20.9756 33.39C20.8899 34.0457 20.5899 34.6547 20.1223 35.1223C19.6547 35.5899 19.0457 35.8899 18.39 35.9756ZM18.39 20.9756C17.7687 21.0569 17.1375 20.9416 16.5851 20.6458C16.0326 20.3501 15.5867 19.8888 15.3098 19.3267C15.0329 18.7646 14.9389 18.1299 15.0411 17.5116C15.1433 16.8934 15.4366 16.3227 15.8796 15.8796C16.3227 15.4366 16.8934 15.1433 17.5116 15.0411C18.1299 14.9389 18.7646 15.0329 19.3267 15.3098C19.8888 15.5867 20.3501 16.0326 20.6458 16.5851C20.9416 17.1375 21.0569 17.7687 20.9756 18.39C20.8899 19.0457 20.5899 19.6547 20.1223 20.1223C19.6547 20.5899 19.0457 20.8899 18.39 20.9756ZM33.39 65.9756C32.7687 66.0569 32.1375 65.9416 31.5851 65.6458C31.0326 65.3501 30.5867 64.8888 30.3098 64.3267C30.0329 63.7646 29.9389 63.1299 30.0411 62.5116C30.1433 61.8934 30.4366 61.3227 30.8796 60.8796C31.3227 60.4366 31.8934 60.1433 32.5116 60.0411C33.1299 59.9389 33.7646 60.0329 34.3267 60.3098C34.8888 60.5867 35.3501 61.0326 35.6458 61.5851C35.9416 62.1375 36.0569 62.7687 35.9756 63.39C35.8899 64.0457 35.5899 64.6547 35.1223 65.1223C34.6547 65.5899 34.0457 65.8899 33.39 65.9756ZM33.39 50.9756C32.7687 51.0569 32.1375 50.9416 31.5851 50.6458C31.0326 50.3501 30.5867 49.8888 30.3098 49.3267C30.0329 48.7646 29.9389 48.1299 30.0411 47.5116C30.1433 46.8934 30.4366 46.3227 30.8796 45.8796C31.3227 45.4366 31.8934 45.1433 32.5116 45.0411C33.1299 44.9389 33.7646 45.0329 34.3267 45.3098C34.8888 45.5867 35.3501 46.0326 35.6458 46.5851C35.9416 47.1375 36.0569 47.7687 35.9756 48.39C35.8899 49.0457 35.5899 49.6547 35.1223 50.1223C34.6547 50.5899 34.0457 50.8899 33.39 50.9756ZM33.39 35.9756C32.7687 36.0569 32.1375 35.9416 31.5851 35.6458C31.0326 35.3501 30.5867 34.8888 30.3098 34.3267C30.0329 33.7646 29.9389 33.1299 30.0411 32.5116C30.1433 31.8934 30.4366 31.3227 30.8796 30.8796C31.3227 30.4366 31.8934 30.1433 32.5116 30.0411C33.1299 29.9389 33.7646 30.0329 34.3267 30.3098C34.8888 30.5867 35.3501 31.0326 35.6458 31.5851C35.9416 32.1375 36.0569 32.7687 35.9756 33.39C35.8899 34.0457 35.5899 34.6547 35.1223 35.1223C34.6547 35.5899 34.0457 35.8899 33.39 35.9756ZM33.39 20.9756C32.7687 21.0569 32.1375 20.9416 31.5851 20.6458C31.0326 20.3501 30.5867 19.8888 30.3098 19.3267C30.0329 18.7646 29.9389 18.1299 30.0411 17.5116C30.1433 16.8934 30.4366 16.3227 30.8796 15.8796C31.3227 15.4366 31.8934 15.1433 32.5116 15.0411C33.1299 14.9389 33.7646 15.0329 34.3267 15.3098C34.8888 15.5867 35.3501 16.0326 35.6458 16.5851C35.9416 17.1375 36.0569 17.7687 35.9756 18.39C35.8899 19.0457 35.5899 19.6547 35.1223 20.1223C34.6547 20.5899 34.0457 20.8899 33.39 20.9756ZM48.39 80.9756C47.7687 81.0569 47.1375 80.9416 46.5851 80.6458C46.0326 80.3501 45.5867 79.8888 45.3098 79.3267C45.0329 78.7646 44.9389 78.1299 45.0411 77.5116C45.1433 76.8934 45.4366 76.3227 45.8796 75.8796C46.3227 75.4366 46.8934 75.1433 47.5116 75.0411C48.1299 74.9389 48.7646 75.0329 49.3267 75.3098C49.8888 75.5867 50.3501 76.0326 50.6458 76.5851C50.9416 77.1375 51.0569 77.7687 50.9756 78.39C50.8899 79.0457 50.5899 79.6547 50.1223 80.1223C49.6547 80.5899 49.0457 80.8899 48.39 80.9756ZM48.39 65.9756C47.7687 66.0569 47.1375 65.9416 46.5851 65.6458C46.0326 65.3501 45.5867 64.8888 45.3098 64.3267C45.0329 63.7646 44.9389 63.1299 45.0411 62.5116C45.1433 61.8934 45.4366 61.3227 45.8796 60.8796C46.3227 60.4366 46.8934 60.1433 47.5116 60.0411C48.1299 59.9389 48.7646 60.0329 49.3267 60.3098C49.8888 60.5867 50.3501 61.0326 50.6458 61.5851C50.9416 62.1375 51.0569 62.7687 50.9756 63.39C50.8899 64.0457 50.5899 64.6547 50.1223 65.1223C49.6547 65.5899 49.0457 65.8899 48.39 65.9756ZM48.39 50.9756C47.7687 51.0569 47.1375 50.9416 46.5851 50.6458C46.0326 50.3501 45.5867 49.8888 45.3098 49.3267C45.0329 48.7646 44.9389 48.1299 45.0411 47.5116C45.1433 46.8934 45.4366 46.3227 45.8796 45.8796C46.3227 45.4366 46.8934 45.1433 47.5116 45.0411C48.1299 44.9389 48.7646 45.0329 49.3267 45.3098C49.8888 45.5867 50.3501 46.0326 50.6458 46.5851C50.9416 47.1375 51.0569 47.7687 50.9756 48.39C50.8899 49.0457 50.5899 49.6547 50.1223 50.1223C49.6547 50.5899 49.0457 50.8899 48.39 50.9756ZM48.39 35.9756C47.7687 36.0569 47.1375 35.9416 46.5851 35.6458C46.0326 35.3501 45.5867 34.8888 45.3098 34.3267C45.0329 33.7646 44.9389 33.1299 45.0411 32.5116C45.1433 31.8934 45.4366 31.3227 45.8796 30.8796C46.3227 30.4366 46.8934 30.1433 47.5116 30.0411C48.1299 29.9389 48.7646 30.0329 49.3267 30.3098C49.8888 30.5867 50.3501 31.0326 50.6458 31.5851C50.9416 32.1375 51.0569 32.7687 50.9756 33.39C50.8899 34.0457 50.5899 34.6547 50.1223 35.1223C49.6547 35.5899 49.0457 35.8899 48.39 35.9756ZM48.39 20.9756C47.7687 21.0569 47.1375 20.9416 46.5851 20.6458C46.0326 20.3501 45.5867 19.8888 45.3098 19.3267C45.0329 18.7646 44.9389 18.1299 45.0411 17.5116C45.1433 16.8934 45.4366 16.3227 45.8796 15.8796C46.3227 15.4366 46.8934 15.1433 47.5116 15.0411C48.1299 14.9389 48.7646 15.0329 49.3267 15.3098C49.8888 15.5867 50.3501 16.0326 50.6458 16.5851C50.9416 17.1375 51.0569 17.7687 50.9756 18.39C50.8899 19.0457 50.5899 19.6547 50.1223 20.1223C49.6547 20.5899 49.0457 20.8899 48.39 20.9756ZM83.25 87H60V39H81C81.7956 39 82.5587 39.3161 83.1213 39.8787C83.6839 40.4413 84 41.2043 84 42V86.25C84 86.4489 83.921 86.6397 83.7803 86.7803C83.6397 86.921 83.4489 87 83.25 87Z" fill="#699BF7"/>
<path d="M75 75C74.4067 75 73.8266 75.1759 73.3333 75.5056C72.8399 75.8352 72.4554 76.3038 72.2284 76.852C72.0013 77.4001 71.9419 78.0033 72.0576 78.5853C72.1734 79.1672 72.4591 79.7018 72.8787 80.1213C73.2982 80.5409 73.8328 80.8266 74.4147 80.9424C74.9967 81.0581 75.5999 80.9987 76.1481 80.7716C76.6962 80.5446 77.1648 80.1601 77.4944 79.6667C77.8241 79.1734 78 78.5933 78 78C78 77.2043 77.6839 76.4413 77.1213 75.8787C76.5587 75.3161 75.7957 75 75 75ZM75 60C74.4067 60 73.8266 60.1759 73.3333 60.5056C72.8399 60.8352 72.4554 61.3038 72.2284 61.852C72.0013 62.4001 71.9419 63.0033 72.0576 63.5853C72.1734 64.1672 72.4591 64.7018 72.8787 65.1213C73.2982 65.5409 73.8328 65.8266 74.4147 65.9424C74.9967 66.0581 75.5999 65.9987 76.1481 65.7716C76.6962 65.5446 77.1648 65.1601 77.4944 64.6667C77.8241 64.1734 78 63.5933 78 63C78 62.2044 77.6839 61.4413 77.1213 60.8787C76.5587 60.3161 75.7957 60 75 60ZM75 45C74.4067 45 73.8266 45.1759 73.3333 45.5056C72.8399 45.8352 72.4554 46.3038 72.2284 46.8519C72.0013 47.4001 71.9419 48.0033 72.0576 48.5853C72.1734 49.1672 72.4591 49.7018 72.8787 50.1213C73.2982 50.5409 73.8328 50.8266 74.4147 50.9424C74.9967 51.0581 75.5999 50.9987 76.1481 50.7716C76.6962 50.5446 77.1648 50.1601 77.4944 49.6667C77.8241 49.1734 78 48.5933 78 48C78 47.2044 77.6839 46.4413 77.1213 45.8787C76.5587 45.3161 75.7957 45 75 45ZM63 75C62.4067 75 61.8266 75.1759 61.3333 75.5056C60.8399 75.8352 60.4554 76.3038 60.2284 76.852C60.0013 77.4001 59.9419 78.0033 60.0576 78.5853C60.1734 79.1672 60.4591 79.7018 60.8787 80.1213C61.2982 80.5409 61.8328 80.8266 62.4147 80.9424C62.9967 81.0581 63.5999 80.9987 64.1481 80.7716C64.6962 80.5446 65.1648 80.1601 65.4944 79.6667C65.8241 79.1734 66 78.5933 66 78C66 77.2043 65.6839 76.4413 65.1213 75.8787C64.5587 75.3161 63.7957 75 63 75ZM63 60C62.4067 60 61.8266 60.1759 61.3333 60.5056C60.8399 60.8352 60.4554 61.3038 60.2284 61.852C60.0013 62.4001 59.9419 63.0033 60.0576 63.5853C60.1734 64.1672 60.4591 64.7018 60.8787 65.1213C61.2982 65.5409 61.8328 65.8266 62.4147 65.9424C62.9967 66.0581 63.5999 65.9987 64.1481 65.7716C64.6962 65.5446 65.1648 65.1601 65.4944 64.6667C65.8241 64.1734 66 63.5933 66 63C66 62.2044 65.6839 61.4413 65.1213 60.8787C64.5587 60.3161 63.7957 60 63 60ZM63 45C62.4067 45 61.8266 45.1759 61.3333 45.5056C60.8399 45.8352 60.4554 46.3038 60.2284 46.8519C60.0013 47.4001 59.9419 48.0033 60.0576 48.5853C60.1734 49.1672 60.4591 49.7018 60.8787 50.1213C61.2982 50.5409 61.8328 50.8266 62.4147 50.9424C62.9967 51.0581 63.5999 50.9987 64.1481 50.7716C64.6962 50.5446 65.1648 50.1601 65.4944 49.6667C65.8241 49.1734 66 48.5933 66 48C66 47.2044 65.6839 46.4413 65.1213 45.8787C64.5587 45.3161 63.7957 45 63 45Z" fill="#699BF7"/>
</svg>
