<svg width="96" height="96" viewBox="0 0 96 96" fill="none" xmlns="http://www.w3.org/2000/svg">
<path d="M48 52C42.6957 52 37.6086 49.8929 33.8579 46.1421C30.1071 42.3914 28 37.3043 28 32H36C36 35.1826 37.2643 38.2348 39.5147 40.4853C41.7652 42.7357 44.8174 44 48 44C51.1826 44 54.2348 42.7357 56.4853 40.4853C58.7357 38.2348 60 35.1826 60 32H68C68 37.3043 65.8929 42.3914 62.1421 46.1421C58.3914 49.8929 53.3043 52 48 52ZM48 12C51.1826 12 54.2348 13.2643 56.4853 15.5147C58.7357 17.7652 60 20.8174 60 24H36C36 20.8174 37.2643 17.7652 39.5147 15.5147C41.7652 13.2643 44.8174 12 48 12ZM76 24H68C68 21.3736 67.4827 18.7728 66.4776 16.3463C65.4725 13.9198 63.9993 11.715 62.1421 9.85786C60.285 8.00069 58.0802 6.5275 55.6537 5.52241C53.2272 4.51732 50.6264 4 48 4C42.6957 4 37.6086 6.10714 33.8579 9.85786C30.1071 13.6086 28 18.6957 28 24H20C15.56 24 12 27.56 12 32V80C12 82.1217 12.8429 84.1566 14.3431 85.6569C15.8434 87.1571 17.8783 88 20 88H76C78.1217 88 80.1566 87.1571 81.6569 85.6569C83.1571 84.1566 84 82.1217 84 80V32C84 29.8783 83.1571 27.8434 81.6569 26.3431C80.1566 24.8429 78.1217 24 76 24Z" fill="#699BF7"/>
</svg>
