<svg width="96" height="97" viewBox="0 0 96 97" fill="none" xmlns="http://www.w3.org/2000/svg">
<path d="M62.316 59.016C60.7586 56.5503 59.9538 53.684 60.0001 50.768C60.0463 47.8519 60.9416 45.0126 62.5764 42.5975C64.2113 40.1824 66.5146 38.2962 69.2047 37.1698C71.8948 36.0434 74.8549 35.7257 77.7228 36.2554C80.5907 36.7851 83.2419 38.1394 85.3521 40.1525C87.4623 42.1656 88.9399 44.7501 89.604 47.5899C90.2682 50.4296 90.0901 53.4014 89.0916 56.1416C88.0931 58.8817 86.3175 61.2713 83.982 63.018C91.272 67.038 96 74.76 96 84V93C96 93.7956 95.6839 94.5587 95.1213 95.1213C94.5587 95.6839 93.7956 96 93 96C92.2044 96 91.4413 95.6839 90.8787 95.1213C90.3161 94.5587 90 93.7956 90 93V84C90 73.656 82.344 66 72 66C66.54 66 64.212 65.88 61.17 65.268C53.67 63.744 47.172 59.268 39.66 49.872C39.3918 49.5674 39.1882 49.2115 39.0615 48.8259C38.9348 48.4403 38.8877 48.033 38.923 47.6286C38.9583 47.2243 39.0753 46.8313 39.2668 46.4735C39.4584 46.1157 39.7206 45.8005 40.0375 45.5469C40.3545 45.2934 40.7196 45.1068 41.1107 44.9984C41.5019 44.8901 41.9109 44.8622 42.3131 44.9165C42.7154 44.9708 43.1024 45.1062 43.4508 45.3145C43.7992 45.5227 44.1017 45.7995 44.34 46.128C49.74 52.872 54.258 56.568 58.944 58.386C59.874 58.698 61.014 58.884 62.316 59.016ZM73.026 59.784C73.526 59.844 74.028 59.912 74.532 59.988L75 60C77.3006 59.9949 79.5119 59.109 81.1797 57.5242C82.8474 55.9394 83.8449 53.7761 83.9673 51.4788C84.0897 49.1814 83.3276 46.9244 81.8377 45.1714C80.3478 43.4185 78.2431 42.3026 75.9561 42.0531C73.669 41.8036 71.3733 42.4394 69.5404 43.8299C67.7076 45.2204 66.4768 47.26 66.1009 49.5297C65.7251 51.7994 66.2327 54.1269 67.5195 56.034C68.8063 57.9411 70.7806 59.283 73.026 59.784ZM58.68 71.82C59.4756 71.82 60.2387 72.1361 60.8013 72.6987C61.3639 73.2613 61.68 74.0244 61.68 74.82C61.6351 75.2922 61.5344 75.7575 61.38 76.206C60.306 78.486 60 80.85 60 84.018V93.018C60 93.8137 59.6839 94.5767 59.1213 95.1393C58.5587 95.7019 57.7957 96.018 57 96.018C56.2043 96.018 55.4413 95.7019 54.8787 95.1393C54.3161 94.5767 54 93.8137 54 93.018V84.018C54 80.076 54.432 76.902 55.842 73.842C56.0456 73.2514 56.4286 72.7392 56.9373 72.3767C57.4461 72.0142 58.0553 71.8196 58.68 71.82ZM35.748 34.632C36.2162 35.2552 36.4234 36.0361 36.3258 36.8094C36.2283 37.5827 35.8336 38.2877 35.2253 38.775C34.6171 39.2624 33.843 39.4939 33.0671 39.4206C32.2911 39.3472 31.5741 38.9747 31.068 38.382L18.66 22.872C18.3918 22.5674 18.1882 22.2115 18.0615 21.8259C17.9348 21.4403 17.8877 21.033 17.923 20.6286C17.9583 20.2243 18.0753 19.8313 18.2668 19.4735C18.4584 19.1157 18.7206 18.8005 19.0375 18.5469C19.3545 18.2934 19.7196 18.1068 20.1107 17.9984C20.5019 17.8901 20.9109 17.8622 21.3131 17.9165C21.7154 17.9708 22.1024 18.1062 22.4508 18.3145C22.7992 18.5227 23.1017 18.7995 23.34 19.128L35.748 34.632ZM6 66H39C39.7957 66 40.5587 66.3161 41.1213 66.8787C41.6839 67.4413 42 68.2044 42 69C42 69.7956 41.6839 70.5587 41.1213 71.1213C40.5587 71.6839 39.7957 72 39 72H3C2.20435 72 1.44129 71.6839 0.87868 71.1213C0.316071 70.5587 0 69.7956 0 69V3C0 2.20435 0.316071 1.44129 0.87868 0.87868C1.44129 0.316071 2.20435 0 3 0L75 0C75.7956 0 76.5587 0.316071 77.1213 0.87868C77.6839 1.44129 78 2.20435 78 3V21C78 21.7956 77.6839 22.5587 77.1213 23.1213C76.5587 23.6839 75.7956 24 75 24C74.2044 24 73.4413 23.6839 72.8787 23.1213C72.3161 22.5587 72 21.7956 72 21V6H6V66Z" fill="#699BF7"/>
</svg>
