<svg width="81" height="81" viewBox="0 0 81 81" fill="none" xmlns="http://www.w3.org/2000/svg">
<path d="M37.9688 47.25C37.2974 47.25 36.6536 46.9833 36.1789 46.5086C35.7042 46.0339 35.4375 45.3901 35.4375 44.7188C35.4375 44.0474 35.7042 43.4036 36.1789 42.9289C36.6536 42.4542 37.2974 42.1875 37.9688 42.1875C38.6401 42.1875 39.2839 42.4542 39.7586 42.9289C40.2333 43.4036 40.5 44.0474 40.5 44.7188C40.5 45.3901 40.2333 46.0339 39.7586 46.5086C39.2839 46.9833 38.6401 47.25 37.9688 47.25Z" fill="black"/>
<path fill-rule="evenodd" clip-rule="evenodd" d="M15.9114 33.75C16.2399 33.75 16.5611 33.723 16.875 33.669V47.25H12.6563C12.4325 47.25 12.2179 47.3389 12.0596 47.4971C11.9014 47.6554 11.8125 47.87 11.8125 48.0938V49.7812C11.8125 50.005 11.9014 50.2196 12.0596 50.3779C12.2179 50.5361 12.4325 50.625 12.6563 50.625H68.3438C68.5675 50.625 68.7821 50.5361 68.9404 50.3779C69.0986 50.2196 69.1875 50.005 69.1875 49.7812V48.0938C69.1875 47.87 69.0986 47.6554 68.9404 47.4971C68.7821 47.3389 68.5675 47.25 68.3438 47.25H64.125V33.669C64.44 33.723 64.7612 33.75 65.0886 33.75C68.2982 33.75 70.875 31.131 70.875 27.9298V23.8967C70.8762 23.3615 70.7831 22.8302 70.5999 22.3273L66.9212 12.1854C66.703 11.5818 66.304 11.0601 65.7785 10.6914C65.2531 10.3227 64.6268 10.1249 63.9849 10.125H17.0134C16.3719 10.1257 15.7462 10.3241 15.2214 10.6931C14.6966 11.062 14.2983 11.5837 14.0805 12.1871L10.4018 22.3273C10.218 22.8301 10.1243 23.3614 10.125 23.8967V27.9298C10.125 31.131 12.7018 33.75 15.9114 33.75ZM13.5743 23.4782L17.1939 13.5H63.8044L67.4241 23.4782C67.4736 23.6132 67.4983 23.7527 67.4983 23.8967V27.9298C67.5024 28.5737 67.2507 29.1929 66.7985 29.6514C66.3464 30.1098 65.7308 30.3701 65.0869 30.375C63.7706 30.375 62.6771 29.295 62.6771 27.9298C62.6771 27.4823 62.4993 27.053 62.1829 26.7366C61.8664 26.4201 61.4372 26.2423 60.9896 26.2423C60.5421 26.2423 60.1129 26.4201 59.7964 26.7366C59.4799 27.053 59.3021 27.4823 59.3021 27.9298C59.3062 28.5737 59.0545 29.1929 58.6023 29.6514C58.1502 30.1098 57.5346 30.3701 56.8907 30.375C55.5744 30.375 54.4809 29.295 54.4809 27.9315C54.4809 27.4839 54.3032 27.0547 53.9867 26.7383C53.6702 26.4218 53.241 26.244 52.7934 26.244C52.3459 26.244 51.9167 26.4218 51.6002 26.7383C51.2837 27.0547 51.1059 27.4839 51.1059 27.9315C51.1059 29.295 50.0124 30.375 48.6945 30.375C47.3766 30.375 46.2848 29.295 46.2848 27.9298C46.2848 27.4823 46.107 27.053 45.7905 26.7366C45.474 26.4201 45.0448 26.2423 44.5973 26.2423C44.1497 26.2423 43.7205 26.4201 43.404 26.7366C43.0875 27.053 42.9098 27.4823 42.9098 27.9298C42.9138 28.5734 42.6623 29.1923 42.2106 29.6508C41.7588 30.1092 41.1436 30.3696 40.5 30.375C39.8564 30.3701 39.241 30.1101 38.7889 29.652C38.3369 29.1939 38.085 28.5751 38.0886 27.9315C38.0886 27.4839 37.9108 27.0547 37.5943 26.7383C37.2778 26.4218 36.8486 26.244 36.4011 26.244C35.9535 26.244 35.5243 26.4218 35.2078 26.7383C34.8914 27.0547 34.7136 27.4839 34.7136 27.9315C34.7136 29.295 33.6218 30.375 32.3038 30.375C30.9859 30.375 29.8924 29.295 29.8924 27.9298C29.8924 27.4823 29.7146 27.053 29.3981 26.7366C29.0817 26.4201 28.6524 26.2423 28.2049 26.2423C27.7573 26.2423 27.3281 26.4201 27.0116 26.7366C26.6952 27.053 26.5174 27.4823 26.5174 27.9298C26.5174 29.2933 25.4256 30.375 24.1076 30.375C22.7897 30.375 21.6962 29.295 21.6962 27.9298C21.6962 27.4823 21.5184 27.053 21.2019 26.7366C20.8855 26.4201 20.4562 26.2423 20.0087 26.2423C19.5611 26.2423 19.1319 26.4201 18.8154 26.7366C18.499 27.053 18.3212 27.4823 18.3212 27.9298C18.3212 29.2933 17.2294 30.375 15.9114 30.375C14.5918 30.375 13.5 29.295 13.5 27.9298V23.8967C13.5 23.7516 13.5248 23.6121 13.5743 23.4782ZM60.75 32.2684C59.6928 33.2242 58.3176 33.7524 56.8924 33.75C56.13 33.7513 55.375 33.6007 54.6715 33.3069C53.968 33.0131 53.3301 32.582 52.7951 32.0389C52.2599 32.5822 51.6218 33.0134 50.918 33.3072C50.2142 33.601 49.4589 33.7515 48.6962 33.75C47.9338 33.7513 47.1788 33.6007 46.4753 33.3069C45.7718 33.0131 45.1339 32.582 44.5989 32.0389C44.0637 32.5822 43.4256 33.0134 42.7218 33.3072C42.018 33.601 41.2627 33.7515 40.5 33.75C39.7373 33.7515 38.982 33.601 38.2782 33.3072C37.5744 33.0134 36.9363 32.5822 36.4011 32.0389C35.8661 32.582 35.2282 33.0131 34.5247 33.3069C33.8212 33.6007 33.0662 33.7513 32.3038 33.75C30.699 33.75 29.2494 33.0936 28.2049 32.0389C27.6699 32.582 27.032 33.0131 26.3285 33.3069C25.625 33.6007 24.87 33.7513 24.1076 33.75C22.6226 33.75 21.2726 33.1881 20.25 32.2684V47.25H24.4688C24.245 47.25 24.0304 47.1611 23.8721 47.0029C23.7139 46.8446 23.625 46.63 23.625 46.4062V43.0312C23.625 42.8075 23.7139 42.5929 23.8721 42.4346C24.0304 42.2764 24.245 42.1875 24.4688 42.1875H29.5313C29.755 42.1875 29.9696 42.2764 30.1279 42.4346C30.2861 42.5929 30.375 42.8075 30.375 43.0312V43.875H32.9063C33.13 43.875 33.3446 43.9639 33.5029 44.1221C33.6611 44.2804 33.75 44.495 33.75 44.7188V46.4062C33.75 46.63 33.6611 46.8446 33.5029 47.0029C33.3446 47.1611 33.13 47.25 32.9063 47.25H60.75V32.2684ZM13.5 55.6875C13.5 55.2399 13.6778 54.8107 13.9943 54.4943C14.3107 54.1778 14.74 54 15.1875 54H65.8125C66.2601 54 66.6893 54.1778 67.0057 54.4943C67.3222 54.8107 67.5 55.2399 67.5 55.6875V69.1875C67.5 69.6351 67.3222 70.0643 67.0057 70.3807C66.6893 70.6972 66.2601 70.875 65.8125 70.875H15.1875C14.74 70.875 14.3107 70.6972 13.9943 70.3807C13.6778 70.0643 13.5 69.6351 13.5 69.1875V55.6875ZM16.875 67.5V57.375H64.125V67.5H16.875Z" fill="black"/>
</svg>
