<svg width="81" height="81" viewBox="0 0 81 81" fill="none" xmlns="http://www.w3.org/2000/svg">
<path fill-rule="evenodd" clip-rule="evenodd" d="M18.8122 15.8321C16.0009 18.1676 15.2584 22.1164 13.7767 30.0173L11.2455 43.5173C9.16312 54.6278 8.12362 60.183 11.1577 63.8415C14.1952 67.5 19.845 67.5 31.1512 67.5H49.8487C61.155 67.5 66.8047 67.5 69.8422 63.8415C72.8797 60.183 71.8335 54.6278 69.7545 43.5173L67.2232 30.0173C65.7382 22.1198 64.9991 18.1676 62.1877 15.8321C59.3764 13.5 55.3567 13.5 47.3175 13.5H33.6825C25.6432 13.5 21.6236 13.5 18.8122 15.8321ZM33.3382 26.1596C33.8616 27.6414 34.8316 28.9244 36.1145 29.8318C37.3974 30.7393 38.9302 31.2266 40.5017 31.2266C42.0731 31.2266 43.6059 30.7393 44.8889 29.8318C46.1718 28.9244 47.1418 27.6414 47.6651 26.1596C47.9012 25.5437 48.3683 25.0442 48.9671 24.7675C49.5659 24.4909 50.2491 24.4589 50.8711 24.6784C51.4932 24.8979 52.0049 25.3516 52.2975 25.9428C52.59 26.534 52.6402 27.2161 52.4374 27.8438C51.5648 30.312 49.9484 32.4491 47.8108 33.9606C45.6733 35.4721 43.1197 36.2837 40.5017 36.2837C37.8837 36.2837 35.3301 35.4721 33.1925 33.9606C31.055 32.4491 29.4386 30.312 28.566 27.8438C28.4488 27.5289 28.3955 27.194 28.4091 26.8583C28.4227 26.5227 28.503 26.1932 28.6453 25.8889C28.7875 25.5846 28.9889 25.3117 29.2377 25.086C29.4865 24.8603 29.7777 24.6864 30.0944 24.5745C30.4111 24.4625 30.7469 24.4146 31.0823 24.4337C31.4176 24.4529 31.7458 24.5385 32.0477 24.6857C32.3497 24.833 32.6192 25.0388 32.8408 25.2913C33.0624 25.5437 33.2315 25.8411 33.3382 26.1596Z" fill="black"/>
</svg>
